# xmcd
#
# Track frame offsets:
#	150
#	14997
#	29937
#	42015
#	56499
#	66069
#	80559
#	92838
#	103926
#	117216
#	130425
#	144336
#	158814
#	176466
#
# Disc length: 2591 seconds
#
# Revision: 0
# Processed by: cddbd v1.4b41PL3 Copyright (c) Steve Scherf et al.
# Submitted via: audiograbber 1.80
#
DISCID=c70a1d0e
DTITLE=Tonico e Tinoco - Enciclopedia Musical Brasileira
DYEAR=1900
DGENRE=
TTITLE0=Tristeza do Jeca
TTITLE1=Sertão do Laranjinha
TTITLE2=Moreninha Linda
TTITLE3=Chico Mineiro
TTITLE4=Na beira da tuia
TTITLE5=Boi de carro
TTITLE6=Pé de  Ipe
TTITLE7=Sertao do pé de  ipê
TTITLE8=Rei do Gado
TTITLE9=Cana Verde
TTITLE10=Saudades de Matão
TTITLE11=Besta Ruana
TTITLE12=Piracicaba
TTITLE13=Cabocla Tereza
EXTD=
EXTT0=
EXTT1=
EXTT2=
EXTT3=
EXTT4=
EXTT5=
EXTT6=
EXTT7=
EXTT8=
EXTT9=
EXTT10=
EXTT11=
EXTT12=
EXTT13=
PLAYORDER=
